<?xml version="1.0" encoding="UTF-8" standalone="no"?>
<svg width="31px" height="31px" viewBox="0 0 31 31" version="1.1" xmlns="http://www.w3.org/2000/svg" xmlns:xlink="http://www.w3.org/1999/xlink">
    <!-- Generator: Sketch 40.2 (33826) - http://www.bohemiancoding.com/sketch -->
    <title>Lukk</title>
    <desc>Created with Sketch.</desc>
    <defs></defs>
    <g id="Page-1" stroke="none" stroke-width="1" fill="none" fill-rule="evenodd">
        <g id="Søk-resultat-V.2" transform="translate(-1158.000000, -17.000000)">
            <g id="Header" transform="translate(1158.000000, 17.000000)">
                <g id="Lukk">
                    <circle id="Oval" fill="#F5F5F5" cx="15.5" cy="15.5" r="15.5"></circle>
                    <path d="M21.6963636,22 L17.6963636,15.1 L21.4963636,8.52 L18.0163636,8.52 L16.8763636,10.98 C16.5363636,11.76 16.2763636,12.36 15.9563636,13.22 L15.9163636,13.22 C15.5963636,12.46 15.2963636,11.8 14.8963636,10.98 L13.7163636,8.52 L10.2163636,8.52 L13.9763636,15.18 L10.0763636,22 L13.5563636,22 L14.6763636,19.56 C15.0963636,18.62 15.4363636,17.92 15.7163636,17.14 L15.7563636,17.14 C16.1363636,17.92 16.4563636,18.62 16.9563636,19.56 L18.1763636,22 L21.6963636,22 Z" id="X" fill="#333333"></path>
                </g>
            </g>
        </g>
    </g>
</svg>