<?xml version="1.0" encoding="UTF-8" standalone="no"?>
<svg width="130px" height="130px" viewBox="0 0 130 130" version="1.1" xmlns="http://www.w3.org/2000/svg" xmlns:xlink="http://www.w3.org/1999/xlink" xmlns:sketch="http://www.bohemiancoding.com/sketch/ns">
    <!-- Generator: Sketch 3.4.1 (15681) - http://www.bohemiancoding.com/sketch -->
    <title>ill rektoratets blogg</title>
    <desc>Created with Sketch.</desc>
    <defs>
        <path id="path-1" d="M8.2368323,1.05857143 L0.643540373,13.6596894 L21.6639752,13 L29.2564596,0.398881988 L8.2368323,1.05857143"></path>
        <path id="path-3" d="M0.708944099,6.62111801 L4.33925466,0.596708075 L13.0419876,0.322981366 L9.41167702,6.3473913 L0.708944099,6.62111801"></path>
    </defs>
    <g id="Skisser-sidemaler" stroke="none" stroke-width="1" fill="none" fill-rule="evenodd" sketch:type="MSPage">
        <g id="Forsiden-(Desktop)" sketch:type="MSArtboardGroup" transform="translate(-1053.000000, -1734.000000)">
            <g id="Publikumstjenester" sketch:type="MSLayerGroup" transform="translate(0.000000, 1677.000000)">
                <g id="Rektoratets-blogg" transform="translate(994.000000, 57.000000)">
                    <g id="ill-rektoratets-blogg" transform="translate(59.000000, 0.000000)">
                        <path d="M129.65441,64.6374534 C129.65441,100.313168 100.733851,129.233727 65.0581366,129.233727 C29.3824224,129.233727 0.461863354,100.313168 0.461863354,64.6374534 C0.461863354,28.9617391 29.3824224,0.0411801242 65.0581366,0.0411801242 C100.733851,0.0411801242 129.65441,28.9617391 129.65441,64.6374534" id="Fill-1" fill="#F5F5F5" sketch:type="MSShapeGroup"></path>
                        <path d="M65.0581366,123.900497 C49.7011801,123.900497 35.1314907,118.060994 24.032236,107.456708 L22.3059006,105.807081 L83.4624224,60.1956522 L124.363975,60.1956522 L124.455217,64.4598137 C124.456025,97.2545342 97.8100621,123.900497 65.0581366,123.900497" id="Fill-2" fill="#FFFFFF" sketch:type="MSShapeGroup"></path>
                        <path d="M91.1421118,71.1657143 L81.8927329,71.0413665 L79.0472671,73.1157143 L91.1138509,73.2780124 L100.36323,73.4023602 L103.207888,71.3280124 L91.1421118,71.1657143" id="Fill-3" fill="#5EADC5" sketch:type="MSShapeGroup"></path>
                        <path d="M80.427205,79.6044099 L71.1778261,79.4800621 L68.3323602,81.5544099 L80.3989441,81.7167081 L116.928944,82.2391304 L119.773602,80.1647826 L80.427205,79.6044099" id="Fill-4" fill="#5EADC5" sketch:type="MSShapeGroup"></path>
                        <path d="M69.5249689,87.0192547 L60.2755901,86.8949068 L57.4301242,88.9692547 L69.4967081,89.1315528 L108.265776,89.6539752 L111.110435,87.5796273 L69.5249689,87.0192547" id="Fill-5" fill="#5EADC5" sketch:type="MSShapeGroup"></path>
                        <path d="M60.4944099,94.4591304 L51.2450311,94.3355901 L48.3995652,96.4091304 L60.4661491,96.572236 L99.2352174,97.0938509 L102.079876,95.0203106 L60.4944099,94.4591304" id="Fill-6" fill="#5EADC5" sketch:type="MSShapeGroup"></path>
                        <path d="M51.4355901,101.899006 L42.1862112,101.774658 L39.3407453,103.849006 L51.4073292,104.011304 L90.1763975,104.533727 L93.0210559,102.460186 L51.4355901,101.899006" id="Fill-7" fill="#5EADC5" sketch:type="MSShapeGroup"></path>
                        <path d="M42.9750932,109.346957 L33.7257143,109.222609 L30.8802484,111.296957 L42.9476398,111.459255 L81.7159006,111.981677 L84.560559,109.907329 L42.9750932,109.346957" id="Fill-8" fill="#5EADC5" sketch:type="MSShapeGroup"></path>
                        <g id="Group-11" transform="translate(47.639752, 16.149068)">
                            <mask id="mask-2" sketch:name="Clip 10" fill="white">
                                <use xlink:href="#path-1"></use>
                            </mask>
                            <g id="Clip-10"></g>
                            <path d="M24.0015528,0.563602484 L13.4917391,0.893850932 L4.43937888,7.35993789 L5.8984472,13.4949689 L16.4082609,13.1647205 L25.4598137,6.70024845 L24.0015528,0.563602484" id="Fill-9" fill="#86BDD1" sketch:type="MSShapeGroup" mask="url(#mask-2)"></path>
                        </g>
                        <path d="M78.9519876,98.5852174 L71.777764,98.9485714 L53.5381988,29.6383851 L64.0480124,29.3089441 L78.9519876,98.5852174" id="Fill-12" fill="#86BDD1" sketch:type="MSShapeGroup"></path>
                        <path d="M84.1955901,94.8434783 L78.9519876,98.5852174 L78.8219876,97.9788199 L78.7097516,97.4628571 L64.3338509,30.697764 L55.4930435,29.5770186 L64.0488199,29.3081366 L73.0995652,22.8501242 L84.1955901,94.8434783" id="Fill-13" fill="#5EADC5" sketch:type="MSShapeGroup"></path>
                        <g id="Group-16" transform="translate(55.714286, 19.378882)">
                            <mask id="mask-4" sketch:name="Clip 15" fill="white">
                                <use xlink:href="#path-3"></use>
                            </mask>
                            <g id="Clip-15"></g>
                            <path d="M8.6873913,0.459440994 C6.29006211,0.534534161 3.52776398,1.94192547 2.52490683,3.60689441 C1.52285714,5.27024845 2.65975155,6.5589441 5.05708075,6.48385093 C7.46086957,6.40875776 10.2255901,4.99732919 11.2284472,3.3331677 C12.2313043,1.66981366 11.0911801,0.38515528 8.6873913,0.459440994" id="Fill-14" fill="#5EADC5" sketch:type="MSShapeGroup" mask="url(#mask-4)"></path>
                        </g>
                        <path d="M71.777764,98.9485714 L79.69,108.008199 C79.69,108.008199 81.1950932,106.85677 82.6121739,107.300062 L84.1955901,94.8442857 L78.9519876,98.5795652 L71.777764,98.9485714" id="Fill-17" fill="#86BDD1" sketch:type="MSShapeGroup"></path>
                        <path d="M82.6121739,107.300062 L84.1955901,94.8434783 L78.9519876,98.5787578 L81.1514907,106.52087 L82.6121739,107.300062" id="Fill-18" fill="#5EADC5" sketch:type="MSShapeGroup"></path>
                        <path d="M79.69,108.008199 L82.3190683,111.11205 L82.6121739,107.300062 C82.6121739,107.300062 81.431677,106.65087 79.69,108.008199" id="Fill-19" fill="#5EADC5" sketch:type="MSShapeGroup"></path>
                    </g>
                </g>
            </g>
        </g>
    </g>
</svg>