<?xml version="1.0" encoding="UTF-8" standalone="no"?>
<svg width="30px" height="30px" viewBox="0 0 30 30" version="1.1" xmlns="http://www.w3.org/2000/svg" xmlns:xlink="http://www.w3.org/1999/xlink">
    <!-- Generator: Sketch 3.6.1 (26313) - http://www.bohemiancoding.com/sketch -->
    <title>Group 2</title>
    <desc>Created with Sketch.</desc>
    <defs></defs>
    <g id="Page-1" stroke="none" stroke-width="1" fill="none" fill-rule="evenodd">
        <g id="Søk-forside" transform="translate(-1161.000000, -13.000000)">
            <g id="Lukk" transform="translate(1161.000000, 14.000000)">
                <g id="Group-2" transform="translate(1.000000, 0.000000)">
                    <path d="M20.1963636,21 L16.1963636,14.1 L19.9963636,7.52 L16.5163636,7.52 L15.3763636,9.98 C15.0363636,10.76 14.7763636,11.36 14.4563636,12.22 L14.4163636,12.22 C14.0963636,11.46 13.7963636,10.8 13.3963636,9.98 L12.2163636,7.52 L8.71636363,7.52 L12.4763636,14.18 L8.57636363,21 L12.0563636,21 L13.1763636,18.56 C13.5963636,17.62 13.9363636,16.92 14.2163636,16.14 L14.2563636,16.14 C14.6363636,16.92 14.9563636,17.62 15.4563636,18.56 L16.6763636,21 L20.1963636,21 Z" id="X" fill="#F5F5F5"></path>
                    <circle id="Oval-60" stroke="#979797" cx="14" cy="14" r="14"></circle>
                </g>
            </g>
        </g>
    </g>
</svg>