<?xml version="1.0" encoding="UTF-8" standalone="no"?>
<svg width="19px" height="21px" viewBox="0 0 19 21" version="1.1" xmlns="http://www.w3.org/2000/svg" xmlns:xlink="http://www.w3.org/1999/xlink" xmlns:sketch="http://www.bohemiancoding.com/sketch/ns">
    <!-- Generator: Sketch 3.4.1 (15681) - http://www.bohemiancoding.com/sketch -->
    <title>Page 1</title>
    <desc>Created with Sketch.</desc>
    <defs></defs>
    <g id="Skisser-sidemaler" stroke="none" stroke-width="1" fill="none" fill-rule="evenodd" sketch:type="MSPage">
        <g id="Oppsett-ikoner" sketch:type="MSArtboardGroup" transform="translate(-149.000000, -250.000000)" stroke="#606060" stroke-width="1.3">
            <path d="M158.631,270.354 C154.445,270.355 150,269.716 150,269.046 C150,267.983 150.914,264.926 151.569,264.338 C152.223,263.75 154.541,263.147 155.662,262.77 C156.504,262.348 156.537,262.263 156.537,261.723 L156.537,260.938 C155.045,259.773 154.185,257.632 154.185,255.708 C154.185,253.263 156.159,251 158.631,251 C161.103,251 163.076,253.263 163.076,255.708 C163.076,257.632 162.005,259.984 160.512,261.15 L160.512,261.934 C160.512,262.474 160.543,262.559 161.385,262.98 C162.508,263.359 164.826,263.961 165.481,264.549 C166.137,265.138 167.049,268.194 167.049,269.257 C167.049,269.927 162.816,270.355 158.631,270.354 L158.631,270.354 Z" id="Page-1" sketch:type="MSShapeGroup"></path>
        </g>
    </g>
</svg>