<?xml version="1.0" encoding="UTF-8" standalone="no"?>
<svg width="34px" height="34px" viewBox="0 0 34 34" version="1.1" xmlns="http://www.w3.org/2000/svg" xmlns:xlink="http://www.w3.org/1999/xlink" xmlns:sketch="http://www.bohemiancoding.com/sketch/ns">
    <!-- Generator: Sketch 3.4.1 (15681) - http://www.bohemiancoding.com/sketch -->
    <title>Facebook</title>
    <desc>Created with Sketch.</desc>
    <defs>
        <path id="path-1" d="M0,0.985 L34.017,0.985 L34.017,35 L0,35 L0,0.985 Z"></path>
    </defs>
    <g id="Skisser-sidemaler" stroke="none" stroke-width="1" fill="none" fill-rule="evenodd" sketch:type="MSPage">
        <g id="Oppsett-ikoner-etc." sketch:type="MSArtboardGroup" transform="translate(-506.000000, -377.000000)">
            <g id="Facebook" sketch:type="MSLayerGroup" transform="translate(506.000000, 376.000000)">
                <mask id="mask-2" sketch:name="Clip 2" fill="white">
                    <use xlink:href="#path-1"></use>
                </mask>
                <g id="Clip-2"></g>
                <path d="M20.7637,15.1118 L20.5677,17.6568 L17.9587,17.6568 L17.9587,26.4958 L14.6627,26.4958 L14.6627,17.6568 L12.9057,17.6568 L12.9057,15.1118 L14.6627,15.1118 L14.6627,13.4028 C14.6627,12.6508 14.6827,11.4888 15.2297,10.7678 C15.8057,10.0068 16.5977,9.4888 17.9587,9.4888 C20.1767,9.4888 21.1117,9.8048 21.1117,9.8048 L20.6717,12.4088 C20.6717,12.4088 19.9387,12.1978 19.2547,12.1978 C18.5717,12.1978 17.9587,12.4418 17.9587,13.1258 L17.9587,15.1118 L20.7637,15.1118 Z M17.0077,0.9848 C7.6147,0.9848 -0.0003,8.5998 -0.0003,17.9928 C-0.0003,27.3868 7.6147,34.9998 17.0077,34.9998 C26.4007,34.9998 34.0167,27.3868 34.0167,17.9928 C34.0167,8.5998 26.4007,0.9848 17.0077,0.9848 L17.0077,0.9848 Z" id="Fill-1" fill="#606060" sketch:type="MSShapeGroup" mask="url(#mask-2)"></path>
            </g>
        </g>
    </g>
</svg>