<?xml version="1.0" encoding="UTF-8" standalone="no"?>
<svg width="34px" height="34px" viewBox="0 0 34 34" version="1.1" xmlns="http://www.w3.org/2000/svg" xmlns:xlink="http://www.w3.org/1999/xlink" xmlns:sketch="http://www.bohemiancoding.com/sketch/ns">
    <!-- Generator: Sketch 3.4.1 (15681) - http://www.bohemiancoding.com/sketch -->
    <title>Twitter</title>
    <desc>Created with Sketch.</desc>
    <defs>
        <path id="path-1" d="M0,0.985 L34.017,0.985 L34.017,35 L0,35"></path>
    </defs>
    <g id="Skisser-sidemaler" stroke="none" stroke-width="1" fill="none" fill-rule="evenodd" sketch:type="MSPage">
        <g id="Oppsett-ikoner-etc." sketch:type="MSArtboardGroup" transform="translate(-401.000000, -377.000000)">
            <g id="Twitter" sketch:type="MSLayerGroup" transform="translate(401.000000, 376.000000)">
                <mask id="mask-2" sketch:name="Clip 2" fill="white">
                    <use xlink:href="#path-1"></use>
                </mask>
                <g id="Clip-2"></g>
                <path d="M23.7979,15.3462 C23.8039,15.4942 23.8079,15.6472 23.8079,15.7992 C23.8079,20.4182 20.2919,25.7442 13.8619,25.7442 C11.8889,25.7442 10.0519,25.1642 8.5039,24.1742 C8.7769,24.2072 9.0559,24.2222 9.3379,24.2222 C10.9759,24.2222 12.4839,23.6642 13.6789,22.7242 C12.1499,22.6992 10.8589,21.6872 10.4149,20.2992 C10.6269,20.3402 10.8469,20.3612 11.0709,20.3612 C11.3919,20.3612 11.6989,20.3202 11.9929,20.2382 C10.3939,19.9182 9.1889,18.5062 9.1889,16.8112 L9.1889,16.7682 C9.6599,17.0282 10.1989,17.1862 10.7729,17.2032 C9.8349,16.5762 9.2169,15.5062 9.2169,14.2952 C9.2169,13.6552 9.3899,13.0552 9.6909,12.5352 C11.4159,14.6532 13.9899,16.0432 16.8959,16.1882 C16.8349,15.9342 16.8049,15.6662 16.8049,15.3932 C16.8049,13.4632 18.3699,11.8972 20.2999,11.8972 C21.3049,11.8972 22.2139,12.3232 22.8509,13.0002 C23.6479,12.8442 24.3959,12.5552 25.0699,12.1552 C24.8109,12.9692 24.2569,13.6552 23.5339,14.0862 C24.2409,14.0022 24.9149,13.8152 25.5409,13.5372 C25.0739,14.2372 24.4819,14.8542 23.7979,15.3462 M17.0089,0.9852 C7.6149,0.9852 -0.000100000001,8.6002 -0.000100000001,17.9922 C-0.000100000001,27.3872 7.6149,35.0002 17.0089,35.0002 C26.4019,35.0002 34.0169,27.3872 34.0169,17.9922 C34.0169,8.6002 26.4019,0.9852 17.0089,0.9852" id="Fill-1" fill="#606060" sketch:type="MSShapeGroup" mask="url(#mask-2)"></path>
            </g>
        </g>
    </g>
</svg>