<?xml version="1.0" encoding="UTF-8" standalone="no"?>
<svg width="34px" height="34px" viewBox="0 0 34 34" version="1.1" xmlns="http://www.w3.org/2000/svg" xmlns:xlink="http://www.w3.org/1999/xlink" xmlns:sketch="http://www.bohemiancoding.com/sketch/ns">
    <!-- Generator: Sketch 3.4.1 (15681) - http://www.bohemiancoding.com/sketch -->
    <title>Github</title>
    <desc>Created with Sketch.</desc>
    <defs>
        <path id="path-1" d="M0,0.984 L34.016,0.984 L34.016,35 L0,35"></path>
    </defs>
    <g id="Skisser-sidemaler" stroke="none" stroke-width="1" fill="none" fill-rule="evenodd" sketch:type="MSPage">
        <g id="Oppsett-ikoner-etc." sketch:type="MSArtboardGroup" transform="translate(-821.000000, -377.000000)">
            <g id="Github" sketch:type="MSLayerGroup" transform="translate(821.000000, 376.000000)">
                <mask id="mask-2" sketch:name="Clip 2" fill="white">
                    <use xlink:href="#path-1"></use>
                </mask>
                <g id="Clip-2"></g>
                <path d="M17.0068,0.9839 C7.6158,0.9839 -0.000199999999,8.7919 -0.000199999999,18.4229 C-0.000199999999,26.1279 4.8728,32.6639 11.6318,34.9699 C12.4838,35.1299 12.7928,34.5909 12.7928,34.1289 C12.7928,33.7149 12.7788,32.6189 12.7698,31.1629 C8.0388,32.2169 7.0408,28.8259 7.0408,28.8259 C6.2688,26.8109 5.1528,26.2759 5.1528,26.2759 C3.6098,25.1929 5.2698,25.2149 5.2698,25.2149 C6.9768,25.3379 7.8748,27.0119 7.8748,27.0119 C9.3928,29.6759 11.8548,28.9069 12.8238,28.4609 C12.9788,27.3339 13.4178,26.5659 13.9028,26.1289 C10.1268,25.6899 6.1568,24.1929 6.1568,17.5109 C6.1568,15.6079 6.8188,14.0509 7.9078,12.8319 C7.7328,12.3909 7.1498,10.6169 8.0738,8.2159 C8.0738,8.2159 9.5018,7.7479 12.7518,10.0049 C14.1078,9.6169 15.5638,9.4239 17.0088,9.4169 C18.4528,9.4239 19.9088,9.6169 21.2678,10.0049 C24.5138,7.7479 25.9398,8.2159 25.9398,8.2159 C26.8658,10.6169 26.2828,12.3909 26.1088,12.8319 C27.1978,14.0509 27.8568,15.6079 27.8568,17.5109 C27.8568,24.2109 23.8798,25.6839 20.0908,26.1159 C20.7028,26.6539 21.2468,27.7179 21.2468,29.3449 C21.2468,31.6759 21.2258,33.5569 21.2258,34.1289 C21.2258,34.5959 21.5328,35.1379 22.3938,34.9679 C29.1478,32.6579 34.0158,26.1259 34.0158,18.4229 C34.0158,8.7919 26.4008,0.9839 17.0068,0.9839" id="Fill-1" fill="#606060" sketch:type="MSShapeGroup" mask="url(#mask-2)"></path>
            </g>
        </g>
    </g>
</svg>