<?xml version="1.0" encoding="UTF-8" standalone="no"?>
<svg width="34px" height="34px" viewBox="0 0 34 34" version="1.1" xmlns="http://www.w3.org/2000/svg" xmlns:xlink="http://www.w3.org/1999/xlink" xmlns:sketch="http://www.bohemiancoding.com/sketch/ns">
    <!-- Generator: Sketch 3.4.1 (15681) - http://www.bohemiancoding.com/sketch -->
    <title>Flickr</title>
    <desc>Created with Sketch.</desc>
    <defs>
        <path id="path-1" d="M0,0.984 L34.016,0.984 L34.016,35 L0,35"></path>
    </defs>
    <g id="Skisser-sidemaler" stroke="none" stroke-width="1" fill="none" fill-rule="evenodd" sketch:type="MSPage">
        <g id="Oppsett-ikoner-etc." sketch:type="MSArtboardGroup" transform="translate(-558.000000, -377.000000)">
            <g id="Flickr" sketch:type="MSLayerGroup" transform="translate(558.000000, 376.000000)">
                <mask id="mask-2" sketch:name="Clip 2" fill="white">
                    <use xlink:href="#path-1"></use>
                </mask>
                <g id="Clip-2"></g>
                <path d="M21.7666,21.7393 C19.6946,21.7393 18.0186,20.0613 18.0186,17.9913 C18.0186,15.9223 19.6946,14.2443 21.7666,14.2443 C23.8346,14.2443 25.5106,15.9223 25.5106,17.9913 C25.5106,20.0613 23.8346,21.7393 21.7666,21.7393 M12.2466,21.7393 C10.1796,21.7393 8.5036,20.0613 8.5036,17.9913 C8.5036,15.9223 10.1796,14.2443 12.2466,14.2443 C14.3196,14.2443 15.9956,15.9223 15.9956,17.9913 C15.9956,20.0613 14.3196,21.7393 12.2466,21.7393 M17.0086,0.9843 C7.6146,0.9843 -0.000400000001,8.5983 -0.000400000001,17.9913 C-0.000400000001,27.3853 7.6146,35.0003 17.0086,35.0003 C26.3986,35.0003 34.0156,27.3853 34.0156,17.9913 C34.0156,8.5983 26.3986,0.9843 17.0086,0.9843" id="Fill-1" fill="#606060" sketch:type="MSShapeGroup" mask="url(#mask-2)"></path>
            </g>
        </g>
    </g>
</svg>