<?xml version="1.0" encoding="UTF-8" standalone="no"?>
<svg width="49px" height="49px" viewBox="0 0 49 49" version="1.1" xmlns="http://www.w3.org/2000/svg" xmlns:xlink="http://www.w3.org/1999/xlink" xmlns:sketch="http://www.bohemiancoding.com/sketch/ns">
    <!-- Generator: Sketch 3.5.2 (25235) - http://www.bohemiancoding.com/sketch -->
    <title>!</title>
    <desc>Created with Sketch.</desc>
    <defs></defs>
    <g id="Page-1" stroke="none" stroke-width="1" fill="none" fill-rule="evenodd" sketch:type="MSPage">
        <g id="Utdanning" sketch:type="MSArtboardGroup" transform="translate(-242.000000, -401.000000)">
            <g id="Viktig-melding" sketch:type="MSLayerGroup" transform="translate(219.000000, 379.000000)">
                <g id="!" transform="translate(23.000000, 22.000000)" sketch:type="MSShapeGroup">
                    <path d="M48.0545455,24.2090909 C48.0545455,37.3606061 37.3939394,48.0212121 24.2439394,48.0212121 C11.0939394,48.0212121 0.433333333,37.3606061 0.433333333,24.2090909 C0.433333333,11.0590909 11.0939394,0.398484848 24.2439394,0.398484848 C37.3939394,0.398484848 48.0545455,11.0590909 48.0545455,24.2090909" id="Fill-1" fill="#FFFFFF"></path>
                    <path d="M20.6939394,34.0030303 C20.6939394,31.9136364 22.1530303,30.4136364 24.2454545,30.4136364 C26.3363636,30.4136364 27.7166667,31.9136364 27.7560606,34.0030303 C27.7560606,36.0530303 26.3742424,37.5924242 24.2454545,37.5924242 C22.1136364,37.5924242 20.6939394,36.0530303 20.6939394,34.0030303 L20.6939394,34.0030303 Z M21.9984848,26.9257576 L21.0909091,9.05909091 L27.3621212,9.05909091 L26.4939394,26.9257576 L21.9984848,26.9257576 L21.9984848,26.9257576 Z" id="Fill-2" fill="#333333"></path>
                </g>
            </g>
        </g>
    </g>
</svg>