<?xml version="1.0" encoding="UTF-8" standalone="no"?>
<svg width="34px" height="34px" viewBox="0 0 34 34" version="1.1" xmlns="http://www.w3.org/2000/svg" xmlns:xlink="http://www.w3.org/1999/xlink" xmlns:sketch="http://www.bohemiancoding.com/sketch/ns">
    <!-- Generator: Sketch 3.4.1 (15681) - http://www.bohemiancoding.com/sketch -->
    <title>LinkedIn</title>
    <desc>Created with Sketch.</desc>
    <defs></defs>
    <g id="Skisser-sidemaler" stroke="none" stroke-width="1" fill="none" fill-rule="evenodd" sketch:type="MSPage">
        <g id="Oppsett-ikoner-etc." sketch:type="MSArtboardGroup" transform="translate(-454.000000, -475.000000)" fill="#CF3C3A">
            <g id="LinkedIn" sketch:type="MSLayerGroup" transform="translate(454.000000, 475.000000)">
                <path d="M25.571,25.476 L22.023,25.476 L22.023,19.923 C22.023,18.598 22,16.894 20.177,16.894 C18.332,16.894 18.05,18.338 18.05,19.828 L18.05,25.476 L14.505,25.476 L14.505,14.056 L17.906,14.056 L17.906,15.619 L17.956,15.619 C18.429,14.72 19.587,13.773 21.313,13.773 C24.907,13.773 25.571,16.138 25.571,19.213 L25.571,25.476 Z M10.504,12.497 C9.363,12.497 8.444,11.575 8.444,10.438 C8.444,9.302 9.363,8.381 10.504,8.381 C11.638,8.381 12.56,9.302 12.56,10.438 C12.56,11.575 11.638,12.497 10.504,12.497 L10.504,12.497 Z M12.279,25.476 L8.726,25.476 L8.726,14.056 L12.279,14.056 L12.279,25.476 Z M17.008,0 C7.614,0 0,7.616 0,17.008 C0,26.403 7.614,34.016 17.008,34.016 C26.4,34.016 34.016,26.403 34.016,17.008 C34.016,7.616 26.4,0 17.008,0 L17.008,0 Z" sketch:type="MSShapeGroup"></path>
            </g>
        </g>
    </g>
</svg>