<?xml version="1.0" encoding="UTF-8" standalone="no"?>
<svg width="119px" height="120px" viewBox="0 0 119 120" version="1.1" xmlns="http://www.w3.org/2000/svg" xmlns:xlink="http://www.w3.org/1999/xlink" xmlns:sketch="http://www.bohemiancoding.com/sketch/ns">
    <!-- Generator: Sketch 3.4.1 (15681) - http://www.bohemiancoding.com/sketch -->
    <title>ill museet</title>
    <desc>Created with Sketch.</desc>
    <defs>
        <path id="path-1" d="M0.662919255,60.0018634 C0.662919255,92.7198758 27.1861491,119.243913 59.9049689,119.243913 C92.6237888,119.243913 119.147826,92.7198758 119.147826,60.0018634 C119.147826,27.2830435 92.6237888,0.758198758 59.9049689,0.758198758 C27.1861491,0.758198758 0.662919255,27.2830435 0.662919255,60.0018634"></path>
    </defs>
    <g id="Skisser-sidemaler" stroke="none" stroke-width="1" fill="none" fill-rule="evenodd" sketch:type="MSPage">
        <g id="Forsiden-(Desktop)" sketch:type="MSArtboardGroup" transform="translate(-796.000000, -1739.000000)">
            <g id="Publikumstjenester" sketch:type="MSLayerGroup" transform="translate(0.000000, 1677.000000)">
                <g id="Universitetsmuseet" transform="translate(732.000000, 61.000000)">
                    <g id="ill-museet" transform="translate(63.844720, 0.844720)">
                        <mask id="mask-2" sketch:name="Clip 3" fill="white">
                            <use xlink:href="#path-1"></use>
                        </mask>
                        <g id="Clip-3"></g>
                        <path d="M124.501242,60.0018634 C124.501242,95.6767702 95.5806832,124.598137 59.9049689,124.598137 C24.2300621,124.598137 -4.69130435,95.6767702 -4.69130435,60.0018634 C-4.69130435,24.3253416 24.2300621,-4.59440994 59.9049689,-4.59440994 C95.5806832,-4.59440994 124.501242,24.3253416 124.501242,60.0018634" id="Fill-1" fill="#F5F5F5" sketch:type="MSShapeGroup" mask="url(#mask-2)"></path>
                        <path d="M40.2071429,61.290559 L40.2071429,25.896646 L91.623354,25.896646 L76.8259627,20.4035404 L28.7453416,20.4035404 L28.7453416,55.7974534 L-28.9932298,55.7974534 L-37.3301863,61.290559 L40.2071429,61.290559" id="Fill-2" fill="#5EADC5" sketch:type="MSShapeGroup" mask="url(#mask-2)"></path>
                        <path d="M158.73323,61.290559 L158.73323,36.9571429 L210.150248,36.9571429 L195.35205,31.4640373 L143.936646,31.4640373 L143.936646,55.7974534 L91.5991304,55.7974534 L91.623354,61.290559 L158.73323,61.290559" id="Fill-4" fill="#5EADC5" sketch:type="MSShapeGroup" mask="url(#mask-2)"></path>
                        <path d="M158.73323,36.9571429 L158.73323,61.290559 L91.623354,61.290559 L91.623354,25.896646 L40.2071429,25.896646 L40.2071429,61.290559 L-37.3301863,61.290559 L-37.3301863,36.9571429 L-88.7463975,36.9571429 L-88.7463975,113.275217 L210.150248,113.275217 L210.150248,36.9571429 L158.73323,36.9571429" id="Fill-5" fill="#86BDD1" sketch:type="MSShapeGroup" mask="url(#mask-2)"></path>
                        <path d="M11.8526087,87.9647826 L4.55242236,87.9647826 L4.55242236,76.4658385 C4.55242236,74.7572671 6.04944099,73.3708696 7.8952795,73.3708696 L8.50975155,73.3708696 C10.3555901,73.3708696 11.8526087,74.7572671 11.8526087,76.4658385 L11.8526087,87.9647826" id="Fill-6" fill="#FFFFFF" sketch:type="MSShapeGroup" mask="url(#mask-2)"></path>
                        <path d="M26.0218012,87.9647826 L18.7216149,87.9647826 L18.7216149,76.4658385 C18.7216149,74.7572671 20.2186335,73.3708696 22.064472,73.3708696 L22.6789441,73.3708696 C24.5247826,73.3708696 26.0218012,74.7572671 26.0218012,76.4658385 L26.0218012,87.9647826" id="Fill-7" fill="#FFFFFF" sketch:type="MSShapeGroup" mask="url(#mask-2)"></path>
                        <path d="M40.1909938,87.9647826 L32.8908075,87.9647826 L32.8908075,76.4658385 C32.8908075,74.7572671 34.3878261,73.3708696 36.2336646,73.3708696 L36.8481366,73.3708696 C38.6939752,73.3708696 40.1909938,74.7572671 40.1909938,76.4658385 L40.1909938,87.9647826" id="Fill-8" fill="#FFFFFF" sketch:type="MSShapeGroup" mask="url(#mask-2)"></path>
                        <path d="M4.55080745,94.5318012 L11.8509938,94.5318012 L11.8509938,104.909193 L4.55080745,104.909193 L4.55080745,94.5318012 Z" id="Fill-9" fill="#FFFFFF" sketch:type="MSShapeGroup" mask="url(#mask-2)"></path>
                        <path d="M18.72,94.5318012 L26.0201863,94.5318012 L26.0201863,104.909193 L18.72,104.909193 L18.72,94.5318012 Z" id="Fill-10" fill="#FFFFFF" sketch:type="MSShapeGroup" mask="url(#mask-2)"></path>
                        <path d="M32.8891925,94.5318012 L40.1885714,94.5318012 L40.1885714,104.909193 L32.8891925,104.909193 L32.8891925,94.5318012 Z" id="Fill-11" fill="#FFFFFF" sketch:type="MSShapeGroup" mask="url(#mask-2)"></path>
                        <path d="M99.8125466,87.9647826 L93.799441,87.9647826 L93.799441,76.1549689 C93.799441,74.6175776 95.1454658,73.3708696 96.8055901,73.3708696 C98.4665217,73.3708696 99.8125466,74.6175776 99.8125466,76.1549689 L99.8125466,87.9647826" id="Fill-12" fill="#FFFFFF" sketch:type="MSShapeGroup" mask="url(#mask-2)"></path>
                        <path d="M111.483478,87.9647826 L105.470373,87.9647826 L105.470373,76.1549689 C105.470373,74.6175776 106.816398,73.3708696 108.477329,73.3708696 C110.137453,73.3708696 111.483478,74.6175776 111.483478,76.1549689 L111.483478,87.9647826" id="Fill-13" fill="#FFFFFF" sketch:type="MSShapeGroup" mask="url(#mask-2)"></path>
                        <path d="M123.155217,89.6232919 L117.141304,89.6232919 L117.141304,75.4331056 C117.141304,74.5650932 117.845404,73.8626087 118.712609,73.8626087 L121.583913,73.8626087 C122.451925,73.8626087 123.155217,74.5650932 123.155217,75.4331056 L123.155217,89.6232919" id="Fill-14" fill="#FFFFFF" sketch:type="MSShapeGroup" mask="url(#mask-2)"></path>
                        <path d="M93.799441,94.5309938 L99.8125466,94.5309938 L99.8125466,104.365776 L93.799441,104.365776 L93.799441,94.5309938 Z" id="Fill-15" fill="#FFFFFF" sketch:type="MSShapeGroup" mask="url(#mask-2)"></path>
                        <path d="M105.470373,94.5309938 L111.483478,94.5309938 L111.483478,104.365776 L105.470373,104.365776 L105.470373,94.5309938 Z" id="Fill-16" fill="#FFFFFF" sketch:type="MSShapeGroup" mask="url(#mask-2)"></path>
                        <path d="M117.142112,94.5309938 L119.147826,94.5309938 L119.147826,104.365776 L117.142112,104.365776 L117.142112,94.5309938 Z" id="Fill-17" fill="#FFFFFF" sketch:type="MSShapeGroup" mask="url(#mask-2)"></path>
                        <path d="M59.7773913,87.9647826 L52.4780124,87.9647826 L52.4780124,70.3308075 C52.4780124,68.6206211 53.9750311,67.2358385 55.8208696,67.2358385 L56.4353416,67.2358385 C58.2811801,67.2358385 59.7773913,68.6206211 59.7773913,70.3308075 L59.7773913,87.9647826" id="Fill-18" fill="#FFFFFF" sketch:type="MSShapeGroup" mask="url(#mask-2)"></path>
                        <path d="M73.4952174,87.9647826 L66.1958385,87.9647826 L66.1958385,70.3308075 C66.1958385,68.6206211 67.6920497,67.2358385 69.5386957,67.2358385 L70.1531677,67.2358385 C71.9990062,67.2358385 73.4952174,68.6206211 73.4952174,70.3308075 L73.4952174,87.9647826" id="Fill-19" fill="#FFFFFF" sketch:type="MSShapeGroup" mask="url(#mask-2)"></path>
                        <path d="M87.2130435,87.9647826 L79.9136646,87.9647826 L79.9136646,70.3308075 C79.9136646,68.6206211 81.4098758,67.2358385 83.2557143,67.2358385 L83.8709938,67.2358385 C85.7168323,67.2358385 87.2130435,68.6206211 87.2130435,70.3308075 L87.2130435,87.9647826" id="Fill-20" fill="#FFFFFF" sketch:type="MSShapeGroup" mask="url(#mask-2)"></path>
                        <path d="M51.4703106,55.606087 L46.6110559,55.606087 L46.6110559,42.9573292 C46.6110559,41.6153416 47.6986957,40.5268944 49.0414907,40.5268944 C50.3826708,40.5268944 51.4703106,41.6145342 51.4703106,42.9565217 L51.4703106,55.606087" id="Fill-21" fill="#FFFFFF" sketch:type="MSShapeGroup" mask="url(#mask-2)"></path>
                        <path d="M64.6495652,55.606087 L59.7903106,55.606087 L59.7903106,42.9573292 C59.7903106,41.6153416 60.8787578,40.5268944 62.2207453,40.5268944 C63.5619255,40.5268944 64.6495652,41.6145342 64.6495652,42.9565217 L64.6495652,55.606087" id="Fill-22" fill="#FFFFFF" sketch:type="MSShapeGroup" mask="url(#mask-2)"></path>
                        <path d="M76.995528,55.606087 L72.1362733,55.606087 L72.1362733,42.9573292 C72.1362733,41.6153416 73.223913,40.5268944 74.5667081,40.5268944 C75.9078882,40.5268944 76.995528,41.6145342 76.995528,42.9565217 L76.995528,55.606087" id="Fill-23" fill="#FFFFFF" sketch:type="MSShapeGroup" mask="url(#mask-2)"></path>
                        <path d="M88.5073913,55.606087 L83.6481366,55.606087 L83.6481366,42.9573292 C83.6481366,41.6153416 84.7357764,40.5268944 86.077764,40.5268944 C87.4197516,40.5268944 88.5073913,41.6145342 88.5073913,42.9565217 L88.5073913,55.606087" id="Fill-24" fill="#FFFFFF" sketch:type="MSShapeGroup" mask="url(#mask-2)"></path>
                        <path d="M52.4360248,96.4075155 L59.7354037,96.4075155 L59.7354037,105.010932 L52.4360248,105.010932 L52.4360248,96.4075155 Z" id="Fill-25" fill="#FFFFFF" sketch:type="MSShapeGroup" mask="url(#mask-2)"></path>
                        <path d="M66.1530435,96.4075155 L73.4524224,96.4075155 L73.4524224,113.410062 L66.1530435,113.410062 L66.1530435,96.4075155 Z" id="Fill-26" fill="#FFFFFF" sketch:type="MSShapeGroup" mask="url(#mask-2)"></path>
                        <path d="M79.8708696,96.4075155 L87.1702484,96.4075155 L87.1702484,105.010932 L79.8708696,105.010932 L79.8708696,96.4075155 Z" id="Fill-27" fill="#FFFFFF" sketch:type="MSShapeGroup" mask="url(#mask-2)"></path>
                        <path d="M228.422919,137.199255 C228.422919,151.680124 156.900311,163.418882 68.673913,163.418882 C-19.5532919,163.418882 -91.0742857,151.680124 -91.0742857,137.199255 C-91.0742857,122.717578 -19.5532919,110.97882 68.673913,110.97882 C156.900311,110.97882 228.422919,122.717578 228.422919,137.199255" id="Fill-28" fill="#5EADC5" sketch:type="MSShapeGroup" mask="url(#mask-2)"></path>
                        <path d="M78.8647826,129.001988 L75.303913,131.178075 L71.430559,129.001988 L71.430559,107.084472 L78.8647826,107.084472 L82.7381366,109.259752 L78.8647826,129.001988" id="Fill-29" fill="#989898" sketch:type="MSShapeGroup" mask="url(#mask-2)"></path>
                        <path d="M75.303913,109.261366 L82.7381366,109.261366 L82.7381366,119.243913 L75.303913,119.243913 L75.303913,109.261366 Z" id="Fill-30" fill="#F4F4F4" sketch:type="MSShapeGroup" mask="url(#mask-2)"></path>
                        <path d="M75.303913,109.259752 L82.7381366,109.259752 L78.8647826,107.084472 L78.9640994,103.778758 L81.2564596,103.778758 L81.0384472,99.9578882 L81.9113043,99.3030435 L81.1474534,98.3203727 C81.1474534,98.3203727 81.3662733,93.4070186 81.0384472,92.205528 C80.7114286,91.0056522 78.199441,88.9313043 78.199441,88.9313043 C78.199441,88.9313043 78.8550932,87.4019876 78.8550932,87.0741615 C78.8550932,86.918323 78.5870186,86.4645342 78.3060248,86.0317391 C77.8255901,85.2896894 76.7363354,85.116087 76.1525466,85.7790062 C76.0467702,85.8985093 75.9619876,86.0373913 75.9070807,86.2021118 C75.5792547,87.1839752 75.7980745,88.7124845 75.7980745,88.7124845 L73.9417391,90.4590062 L73.4427329,93.0791925 L73.4427329,103.559938 L74.0507453,104.324596 L74.1734783,107.084472 L71.430559,107.084472 L75.303913,109.259752" id="Fill-31" fill="#989898" sketch:type="MSShapeGroup" mask="url(#mask-2)"></path>
                        <path d="M78.9640994,103.778758 L78.8647826,107.083665 L82.7381366,109.260559 L82.7381366,109.464845 L75.3814286,109.413168 L75.303913,109.413168 L71.430559,107.426025 L71.430559,107.083665 L74.1734783,107.083665 L74.0507453,104.325404 L73.4419255,103.560745 L73.4419255,93.0791925 L73.9417391,90.4598137 L75.7980745,88.7124845 C75.7980745,88.711677 75.5792547,87.1839752 75.9070807,86.2013043 C75.9619876,86.0381988 76.0467702,85.8977019 76.1525466,85.7790062 C76.9317391,84.8948447 78.4545963,85.3131056 78.7678882,86.45 C78.7678882,86.45 76.4504969,84.8447826 76.4190062,88.8118012 C76.3867081,92.7788199 76.9268944,93.4134783 76.9268944,93.4134783 C76.9268944,93.4134783 74.7047826,92.9701863 74.6095031,98.0159627 C74.5150311,103.062547 75.0229193,103.570435 75.0229193,103.570435 L75.0229193,107.283106 L71.430559,107.083665 L75.303913,108.647702 L77.0843478,108.647702 C77.0843478,108.647702 76.6095652,108.647702 76.2599379,107.631925 C75.911118,106.616957 76.3237267,105.060994 76.3237267,105.060994 C76.3237267,105.060994 77.5938509,105.559193 77.6253416,107.409876 C77.6568323,109.260559 80.037205,108.774472 80.037205,108.774472 L81.6876398,108.774472 L78.5450311,107.083665 L78.9640994,103.778758" id="Fill-32" fill="#F4F4F4" sketch:type="MSShapeGroup" mask="url(#mask-2)"></path>
                    </g>
                </g>
            </g>
        </g>
    </g>
</svg>