<?xml version="1.0" encoding="UTF-8" standalone="no"?>
<svg width="129px" height="129px" viewBox="0 0 129 129" version="1.1" xmlns="http://www.w3.org/2000/svg" xmlns:xlink="http://www.w3.org/1999/xlink" xmlns:sketch="http://www.bohemiancoding.com/sketch/ns">
    <!-- Generator: Sketch 3.4.1 (15681) - http://www.bohemiancoding.com/sketch -->
    <title>illustrasjon fak, inst, sentre</title>
    <desc>Created with Sketch.</desc>
    <defs></defs>
    <g id="Skisser-sidemaler" stroke="none" stroke-width="1" fill="none" fill-rule="evenodd" sketch:type="MSPage">
        <g id="Forsiden-(Desktop)" sketch:type="MSArtboardGroup" transform="translate(-284.000000, -1734.000000)">
            <g id="Publikumstjenester" sketch:type="MSLayerGroup" transform="translate(0.000000, 1677.000000)">
                <g id="Fakultet,-institutt-og-sentre" transform="translate(225.000000, 57.000000)" sketch:type="MSShapeGroup">
                    <g id="illustrasjon-fak,-inst,-sentre" transform="translate(59.000000, 0.000000)">
                        <path d="M129,64.4995969 C129,100.12317 100.122544,129 64.5,129 C28.8774563,129 0,100.12317 0,64.4995969 C0,28.8768305 28.8774563,0 64.5,0 C100.122544,0 129,28.8768305 129,64.4995969" id="Fill-1" fill="#F5F5F5"></path>
                        <path d="M37,84.849164 L37,80.9563783 C37,78.8300148 38.7342618,77.1053923 40.8732886,77.1053923 L89.1290466,77.1053923 C91.2672949,77.1053923 93,78.8300148 93,80.9563783 L93,84.849164 M51.0718068,52.3592269 L51.0718068,45.9499476 C51.0718068,43.8235841 51.9350458,42.0989616 52.998332,42.0989616 L77.0032248,42.0989616 C78.066511,42.0989616 78.9289715,43.8235841 78.9289715,45.9499476 L78.9289715,52.3592269 M65.0003892,27 L65.0003892,42.0997356 M65.0003892,76.9010384 L65.0003892,92 M51.0718068,59.4133044 L51.0718068,77.0287596 M78.9289715,59.4133044 L78.9289715,77.0287596" id="Stroke-2" stroke="#5EADC5" stroke-width="2.78118972"></path>
                        <path d="M41.1957069,103 L32.8050597,103 C31.2557223,103 30,101.753871 30,100.21637 L30,88.7828694 C30,87.2453683 31.2557223,86 32.8050597,86 L41.1957069,86 C42.7442777,86 44,87.2453683 44,88.7828694 L44,100.21637 C44,101.753871 42.7442777,103 41.1957069,103" id="Fill-3" fill="#FFFFFF"></path>
                        <path d="M41.1957069,103 L32.8050597,103 C31.2557223,103 30,101.753871 30,100.21637 L30,88.7828694 C30,87.2453683 31.2557223,86 32.8050597,86 L41.1957069,86 C42.7442777,86 44,87.2453683 44,88.7828694 L44,100.21637 C44,101.753871 42.7442777,103 41.1957069,103" id="Stroke-4" stroke="#86BDD1" stroke-width="3.88000798"></path>
                        <path d="M69.1949403,103 L60.8050597,103 C59.2564889,103 58,101.753871 58,100.21637 L58,88.7828694 C58,87.2453683 59.2564889,86 60.8050597,86 L69.1949403,86 C70.7442777,86 72,87.2453683 72,88.7828694 L72,100.21637 C72,101.753871 70.7442777,103 69.1949403,103" id="Fill-5" fill="#FFFFFF"></path>
                        <path d="M69.1949403,103 L60.8050597,103 C59.2564889,103 58,101.753871 58,100.21637 L58,88.7828694 C58,87.2453683 59.2564889,86 60.8050597,86 L69.1949403,86 C70.7442777,86 72,87.2453683 72,88.7828694 L72,100.21637 C72,101.753871 70.7442777,103 69.1949403,103" id="Stroke-6" stroke="#86BDD1" stroke-width="3.88000798"></path>
                        <path d="M97.1947867,103 L88.8044466,103 C87.2550244,103 86,101.753871 86,100.21637 L86,88.7828694 C86,87.2461291 87.2550244,86 88.8044466,86 L97.1947867,86 C98.744209,86 100,87.2461291 100,88.7828694 L100,100.21637 C100,101.753871 98.744209,103 97.1947867,103" id="Fill-7" fill="#FFFFFF"></path>
                        <path d="M97.1947867,103 L88.8044466,103 C87.2550244,103 86,101.753871 86,100.21637 L86,88.7828694 C86,87.2461291 87.2550244,86 88.8044466,86 L97.1947867,86 C98.744209,86 100,87.2461291 100,88.7828694 L100,100.21637 C100,101.753871 98.744209,103 97.1947867,103" id="Stroke-8" stroke="#86BDD1" stroke-width="3.88000798"></path>
                        <path d="M55.1949403,67 L46.8050597,67 C45.2557223,67 44,65.753166 44,64.2164944 L44,52.7835056 C44,51.2460733 45.2557223,50 46.8050597,50 L55.1949403,50 C56.7435111,50 58,51.2460733 58,52.7835056 L58,64.2164944 C58,65.753166 56.7435111,67 55.1949403,67" id="Fill-9" fill="#FFFFFF"></path>
                        <path d="M55.1949403,67 L46.8050597,67 C45.2557223,67 44,65.753166 44,64.2164944 L44,52.7835056 C44,51.2460733 45.2557223,50 46.8050597,50 L55.1949403,50 C56.7435111,50 58,51.2460733 58,52.7835056 L58,64.2164944 C58,65.753166 56.7435111,67 55.1949403,67" id="Stroke-10" stroke="#86BDD1" stroke-width="3.88000798"></path>
                        <path d="M83.1949403,67 L74.8050597,67 C73.2557223,67 72,65.753166 72,64.2164944 L72,52.7835056 C72,51.2460733 73.2557223,50 74.8050597,50 L83.1949403,50 C84.7435111,50 86,51.2460733 86,52.7835056 L86,64.2164944 C86,65.753166 84.7435111,67 83.1949403,67" id="Fill-11" fill="#FFFFFF"></path>
                        <path d="M83.1949403,67 L74.8050597,67 C73.2557223,67 72,65.753166 72,64.2164944 L72,52.7835056 C72,51.2460733 73.2557223,50 74.8050597,50 L83.1949403,50 C84.7435111,50 86,51.2460733 86,52.7835056 L86,64.2164944 C86,65.753166 84.7435111,67 83.1949403,67" id="Stroke-12" stroke="#86BDD1" stroke-width="3.88000798"></path>
                        <path d="M69.1949403,34 L60.8050597,34 C59.2564889,34 58,32.7538709 58,31.2163698 L58,19.7828694 C58,18.2461291 59.2564889,17 60.8050597,17 L69.1949403,17 C70.7442777,17 72,18.2461291 72,19.7828694 L72,31.2163698 C72,32.7538709 70.7442777,34 69.1949403,34" id="Fill-13" fill="#FFFFFF"></path>
                        <path d="M69.1949403,34 L60.8050597,34 C59.2564889,34 58,32.7538709 58,31.2163698 L58,19.7828694 C58,18.2461291 59.2564889,17 60.8050597,17 L69.1949403,17 C70.7442777,17 72,18.2461291 72,19.7828694 L72,31.2163698 C72,32.7538709 70.7442777,34 69.1949403,34" id="Stroke-14" stroke="#86BDD1" stroke-width="3.88000798"></path>
                    </g>
                </g>
            </g>
        </g>
    </g>
</svg>