<?xml version="1.0" encoding="UTF-8" standalone="no"?>
<svg width="20px" height="23px" viewBox="0 0 20 23" version="1.1" xmlns="http://www.w3.org/2000/svg" xmlns:xlink="http://www.w3.org/1999/xlink" xmlns:sketch="http://www.bohemiancoding.com/sketch/ns">
    <!-- Generator: Sketch 3.3.3 (12081) - http://www.bohemiancoding.com/sketch -->
    <title>Blyant</title>
    <desc>Created with Sketch.</desc>
    <defs></defs>
    <g id="Skisser-sidemaler" stroke="none" stroke-width="1" fill="none" fill-rule="evenodd" sketch:type="MSPage">
        <g id="Artikkel-" sketch:type="MSArtboardGroup" transform="translate(-420.000000, -532.000000)" fill="#606060">
            <g id="Overskrift-og-ingress" sketch:type="MSLayerGroup" transform="translate(221.000000, 340.000000)">
                <g id="Byline" transform="translate(199.000000, 192.000000)" sketch:type="MSShapeGroup">
                    <g id="Blyant">
                        <path d="M19.6348148,21.9464516 C19.6348148,21.7439032 19.4755556,21.5799355 19.1444444,21.5799355 L3.73111111,21.5799355 C3.4,21.5799355 3.25481481,21.7439032 3.25481481,21.9464516 C3.25481481,22.1497419 3.4,22.3144516 3.73111111,22.3144516 L19.1444444,22.3144516 C19.4755556,22.3144516 19.6348148,22.1497419 19.6348148,21.9464516" id="Fill-1"></path>
                        <path d="M4.88592593,19.2658387 L3.97259259,18.6121935 L12.2533333,7.06693548 L11.2288889,6.33241935 L2.94814815,17.8791613 L2.03925926,17.2284839 L10.3192593,5.68174194 L9.44814815,5.05703226 L1.16740741,16.6052581 L0.656296296,19.6004516 L0.661481481,19.6093548 L0.654814815,19.6034194 L0.365185185,21.2683226 C0.365185185,21.2683226 0.19037037,21.8262581 0.659259259,22.160871 C1.12814815,22.4984516 1.60222222,22.1519677 1.60222222,22.1519677 L3.08666667,21.344 L3.07851852,21.3380645 L3.08740741,21.3410323 L5.76296296,19.8957419 L5.76444444,19.8957419 L14.0437037,8.34974194 L13.1651852,7.72058065 L4.88592593,19.2658387 L4.88592593,19.2658387 Z M14.937037,6.10241935 L15.4111111,6.44296774 L17.0318519,4.18229032 C17.4481481,3.60506452 17.1933333,2.714 16.4674074,2.19390323 L14.517037,0.798322581 C13.7925926,0.278225806 12.8681481,0.324225806 12.4533333,0.901451613 L10.8325926,3.16212903 L14.4896296,5.78190323 L14.937037,6.10241935 Z M14.5348148,6.94154839 L10.6392593,4.15187097 C10.4481481,4.01387097 10.2059259,4.02722581 10.0962963,4.17783871 L10.0266667,4.27651613 C9.91703704,4.4286129 9.9837037,4.66306452 10.1748148,4.79958065 L14.0703704,7.58925806 C14.26,7.72503226 14.5044444,7.71464516 14.6125926,7.56254839 L14.6822222,7.4646129 C14.7925926,7.31251613 14.7266667,7.07880645 14.5348148,6.94154839 L14.5348148,6.94154839 Z" id="Fill-2"></path>
                    </g>
                </g>
            </g>
        </g>
    </g>
</svg>