<?xml version="1.0" encoding="UTF-8" standalone="no"?>
<svg width="30px" height="30px" viewBox="0 0 30 30" version="1.1" xmlns="http://www.w3.org/2000/svg" xmlns:xlink="http://www.w3.org/1999/xlink" xmlns:sketch="http://www.bohemiancoding.com/sketch/ns">
    <!-- Generator: Sketch 3.3.3 (12081) - http://www.bohemiancoding.com/sketch -->
    <title>Quote ikon</title>
    <desc>Created with Sketch.</desc>
    <defs></defs>
    <g id="Skisser-sidemaler" stroke="none" stroke-width="1" fill="none" fill-rule="evenodd" sketch:type="MSPage">
        <g id="Artikkel-" sketch:type="MSArtboardGroup" transform="translate(-223.000000, -1988.000000)" fill="#D43A38">
            <g id="Blockquote" sketch:type="MSLayerGroup" transform="translate(212.000000, 1957.000000)">
                <path d="M23.3355882,31.42 L23.3355882,37.0387 C21.8788235,37.8745 20.7638235,38.9197 19.9894118,40.1728 C19.2161765,41.4274 18.6308824,42.7435 18.2367647,44.1205 C17.8429412,45.4984 17.6458824,47.0383 17.6458824,48.7405 L23.3355882,48.7405 L23.3355882,61 L11.3170588,61 L11.3170588,53.3845 C11.3170588,48.8032 11.7411765,45.3127 12.5917647,42.9133 C13.4414706,40.5145 14.7547059,38.3083 16.5297059,36.2956 C18.3052941,34.2838 20.5741176,32.6584 23.3355882,31.42 L23.3355882,31.42 Z M41,31.42 L41,37.0387 C39.5432353,37.8745 38.4282353,38.9197 37.6532353,40.1728 C36.88,41.4274 36.2952941,42.7435 35.9011765,44.1205 C35.5064706,45.4984 35.3094118,47.0383 35.3094118,48.7405 L41,48.7405 L41,61 L28.9805882,61 L28.9805882,53.3845 C28.9805882,48.8032 29.4052941,45.3127 30.2552941,42.9133 C31.105,40.5145 32.4108824,38.3083 34.1708824,36.2956 C35.9311765,34.2838 38.2070588,32.6584 41,31.42 L41,31.42 Z" id="Quote-ikon" sketch:type="MSShapeGroup" transform="translate(26.158529, 46.210000) rotate(-180.000000) translate(-26.158529, -46.210000) "></path>
            </g>
        </g>
    </g>
</svg>
