<?xml version="1.0" encoding="UTF-8" standalone="no"?>
<svg width="34px" height="34px" viewBox="0 0 34 34" version="1.1" xmlns="http://www.w3.org/2000/svg" xmlns:xlink="http://www.w3.org/1999/xlink" xmlns:sketch="http://www.bohemiancoding.com/sketch/ns">
    <!-- Generator: Sketch 3.4.1 (15681) - http://www.bohemiancoding.com/sketch -->
    <title>Researchgate</title>
    <desc>Created with Sketch.</desc>
    <defs></defs>
    <g id="Skisser-sidemaler" stroke="none" stroke-width="1" fill="none" fill-rule="evenodd" sketch:type="MSPage">
        <g id="Oppsett-ikoner-etc." sketch:type="MSArtboardGroup" transform="translate(-659.000000, -476.000000)" fill="#CF3C3A">
            <g id="Researchgate" sketch:type="MSLayerGroup" transform="translate(659.000000, 475.000000)">
                <path d="M12.4414,19.6699 L12.6834,19.6829 C12.9544,19.6969 13.2344,19.7119 13.5064,19.7119 C14.1534,19.7119 14.6364,19.6249 15.0764,19.4279 C16.1444,18.9479 16.7054,17.8579 16.5364,16.5829 C16.3884,15.4669 15.7014,14.7869 14.4924,14.5629 C14.1644,14.5019 13.8364,14.4929 13.5584,14.4929 C13.4454,14.4929 13.3324,14.4949 13.2194,14.4969 C13.0314,14.4989 12.8414,14.5019 12.6524,14.4969 L12.6234,14.4969 C12.4724,14.4969 12.3714,14.5259 12.3124,14.5869 C12.2464,14.6569 12.2164,14.7819 12.2244,14.9819 C12.2404,15.4809 12.2364,15.9859 12.2324,16.4749 C12.2304,16.6899 12.2294,16.9059 12.2294,17.1209 L12.2294,17.5479 C12.2294,18.1169 12.2284,18.6849 12.2314,19.2529 L12.2304,19.3049 C12.2284,19.5729 12.2454,19.6599 12.4414,19.6699" id="Fill-1" sketch:type="MSShapeGroup"></path>
                <path d="M25.2422,13.998 C25.1342,15.577 24.1872,16.504 22.6442,16.541 L22.5582,16.542 C21.0412,16.542 20.0552,15.612 19.9242,14.055 C19.8962,13.759 19.9042,13.458 19.9102,13.167 C19.9132,13.037 19.9162,12.906 19.9162,12.775 L19.9102,12.582 C19.8912,12.001 19.8732,11.401 20.0592,10.818 C20.3832,9.814 21.0582,9.235 22.0682,9.096 C23.2632,8.93 24.1292,9.244 24.7452,10.057 C24.7622,10.078 24.7802,10.101 24.8012,10.124 C24.9002,10.243 25.0252,10.391 24.9922,10.566 C24.9722,10.674 24.8942,10.767 24.7602,10.84 C24.7262,10.858 24.6912,10.88 24.6562,10.901 C24.5242,10.982 24.3742,11.074 24.2082,11.074 C24.0302,11.074 23.8752,10.969 23.7482,10.761 C23.4202,10.23 22.9032,10.054 22.1832,10.217 C21.6442,10.341 21.2712,10.859 21.2132,11.57 C21.1352,12.469 21.1382,13.29 21.2192,14.081 C21.3052,14.933 21.8672,15.438 22.7002,15.372 C23.5132,15.302 24.0492,14.652 24.0042,13.791 C23.9892,13.517 23.8852,13.517 23.7742,13.517 C23.7282,13.517 23.6812,13.521 23.6342,13.525 C23.5402,13.534 23.4472,13.54 23.3612,13.526 C23.3222,13.519 23.2792,13.518 23.2372,13.518 L23.1092,13.519 C22.9552,13.519 22.5932,13.519 22.5932,12.999 C22.5922,12.848 22.6072,12.659 22.7322,12.534 C22.8162,12.449 22.9352,12.408 23.0942,12.408 C23.1812,12.41 23.2422,12.41 23.3012,12.41 L23.8922,12.406 C24.5802,12.406 24.9202,12.415 25.1152,12.624 C25.3212,12.846 25.2952,13.23 25.2422,13.998 M20.2812,26.902 C20.0902,26.922 19.9012,26.932 19.7212,26.932 C18.5512,26.932 17.5932,26.5 16.8712,25.649 C15.7232,24.294 14.7972,22.762 14.0172,21.432 C13.8122,21.083 13.2292,20.798 12.7182,20.798 C12.5762,20.798 12.4532,20.82 12.3492,20.863 C12.2382,20.908 12.2302,20.966 12.2342,21.131 L12.2352,21.194 L12.2342,22.025 C12.2312,22.913 12.2282,23.83 12.2622,24.73 C12.2922,25.552 12.4572,25.731 13.3042,25.853 C13.3672,25.862 13.4282,25.874 13.4892,25.885 C13.5582,25.898 13.6292,25.911 13.6992,25.921 C13.8422,25.941 14.0002,25.979 14.0922,26.104 C14.1562,26.189 14.1782,26.302 14.1562,26.437 C14.1072,26.764 13.8382,26.764 13.7502,26.764 L13.6282,26.762 L11.4512,26.763 L9.2802,26.762 L9.1412,26.765 C9.0552,26.765 8.7922,26.765 8.7442,26.44 C8.6862,26.057 8.9882,25.959 9.1682,25.901 C10.3522,25.522 10.3982,25.458 10.4012,24.192 C10.4032,21.454 10.4032,18.715 10.4012,15.975 C10.3982,14.71 10.3522,14.647 9.1672,14.269 C8.9842,14.211 8.6802,14.114 8.7452,13.729 C8.7972,13.407 9.0592,13.407 9.1582,13.407 L9.2772,13.409 C9.6942,13.408 10.1052,13.408 10.5152,13.408 L12.1562,13.408 C12.3682,13.403 12.5832,13.395 12.7992,13.388 C13.1932,13.374 13.5882,13.36 13.9812,13.36 C14.3732,13.36 14.7192,13.374 15.0372,13.403 C16.9712,13.577 18.2342,14.635 18.5042,16.305 C18.7812,17.999 17.7772,19.723 16.1172,20.404 C15.8782,20.502 15.7642,20.577 15.7402,20.654 C15.7172,20.729 15.7622,20.853 15.8832,21.044 C16.5582,22.108 17.4762,23.491 18.5892,24.745 C19.0562,25.272 19.5962,25.786 20.3632,25.973 C20.5762,26.025 20.8702,26.096 20.8322,26.473 C20.7912,26.852 20.4592,26.884 20.2812,26.902 M17.0092,0.985 C7.6152,0.985 0.000199999999,8.601 0.000199999999,17.993 C0.000199999999,27.387 7.6152,35 17.0092,35 C26.4002,35 34.0152,27.387 34.0152,17.993 C34.0152,8.601 26.4002,0.985 17.0092,0.985" id="Fill-3" sketch:type="MSShapeGroup"></path>
            </g>
        </g>
    </g>
</svg>