<?xml version="1.0" encoding="UTF-8" standalone="no"?>
<svg width="42px" height="41px" viewBox="0 0 42 41" version="1.1" xmlns="http://www.w3.org/2000/svg" xmlns:xlink="http://www.w3.org/1999/xlink" xmlns:sketch="http://www.bohemiancoding.com/sketch/ns">
    <!-- Generator: Sketch 3.4.4 (17249) - http://www.bohemiancoding.com/sketch -->
    <title>Group 11</title>
    <desc>Created with Sketch.</desc>
    <defs></defs>
    <g id="Skisser-sidemaler" stroke="none" stroke-width="1" fill="none" fill-rule="evenodd" sketch:type="MSPage">
        <g id="Artikkel-" sketch:type="MSArtboardGroup" transform="translate(-1126.000000, -2488.000000)">
            <g id="SOME-ikoner-1" sketch:type="MSLayerGroup" transform="translate(963.000000, 2488.000000)">
                <g id="Group-11" transform="translate(163.000000, 0.000000)" sketch:type="MSShapeGroup">
                    <path d="M20.6481111,0.18116 C9.38629825,0.18116 0.258403509,9.31916 0.258403509,20.59076 C0.258403509,31.86356 9.38629825,41.00036 20.6481111,41.00036 C31.9087251,41.00036 41.0390175,31.86356 41.0390175,20.59076 C41.0390175,9.31916 31.9087251,0.18116 20.6481111,0.18116" id="Fill-9" fill="#DB4E41"></path>
                    <path d="M8.61557018,20.60036 C8.46571637,16.65236 11.9207456,13.00436 15.8684942,12.95636 C17.8813304,12.78476 19.8390205,13.56716 21.3615351,14.84276 C20.7369444,15.53036 20.1015643,16.20956 19.4218275,16.84556 C18.0815351,16.03076 16.4679094,15.40916 14.901038,15.96116 C12.3739035,16.68116 10.8429971,19.66796 11.7780848,22.14356 C12.5525292,24.72716 15.6934649,26.14556 18.1546637,25.06076 C19.4290205,24.60356 20.2694006,23.42636 20.6386404,22.16156 C19.1772661,22.13156 17.7170906,22.15076 16.2557164,22.10996 C16.2521199,21.23996 16.2485234,20.37356 16.2521199,19.50356 C18.6881433,19.49996 21.1277632,19.49276 23.567383,19.51436 C23.7172368,21.64556 23.4031433,23.92676 22.0184942,25.63796 C20.1231433,28.07996 16.6213596,28.79636 13.7717398,27.83876 C10.7482895,26.84396 8.5496345,23.79596 8.61557018,20.60036" id="Fill-12" fill="#FEFEFE"></path>
                    <path d="M28.3149912,17.31032 L30.4884708,17.31032 C30.4920673,18.03752 30.4992602,18.76832 30.5028567,19.49672 C31.229348,19.50392 31.9594357,19.50752 32.6871257,19.51112 L32.6871257,21.69032 C31.9594357,21.69392 31.229348,21.69752 30.5028567,21.70112 C30.4956637,22.43192 30.4920673,23.15912 30.4884708,23.88992 C29.7607807,23.88632 29.0342895,23.88992 28.3113947,23.88992 C28.3042018,23.15912 28.3042018,22.43192 28.2970088,21.70472 C27.5705175,21.69752 26.839231,21.69392 26.1127398,21.69032 L26.1127398,19.51112 C26.839231,19.50752 27.5657222,19.50392 28.2970088,19.49672 C28.3006053,18.76832 28.3077982,18.03752 28.3149912,17.31032" id="Fill-14" fill="#FEFEFE"></path>
                </g>
            </g>
        </g>
    </g>
</svg>