<?xml version="1.0" encoding="UTF-8" standalone="no"?>
<svg width="41px" height="41px" viewBox="0 0 41 41" version="1.1" xmlns="http://www.w3.org/2000/svg" xmlns:xlink="http://www.w3.org/1999/xlink" xmlns:sketch="http://www.bohemiancoding.com/sketch/ns">
    <!-- Generator: Sketch 3.4.4 (17249) - http://www.bohemiancoding.com/sketch -->
    <title>Fill 6</title>
    <desc>Created with Sketch.</desc>
    <defs></defs>
    <g id="Skisser-sidemaler" stroke="none" stroke-width="1" fill="none" fill-rule="evenodd" sketch:type="MSPage">
        <g id="Artikkel-" sketch:type="MSArtboardGroup" transform="translate(-1072.000000, -2488.000000)" fill="#037BB8">
            <g id="SOME-ikoner-1" sketch:type="MSLayerGroup" transform="translate(963.000000, 2487.000000)">
                <g id="Group-8" sketch:type="MSShapeGroup">
                    <path d="M139.69731,31.75188 L135.44386,31.75188 L135.44386,25.08828 C135.44386,23.49828 135.416287,21.45348 133.230819,21.45348 C131.018977,21.45348 130.680906,23.18628 130.680906,24.97428 L130.680906,31.75188 L126.431053,31.75188 L126.431053,18.04788 L130.508275,18.04788 L130.508275,19.92348 L130.568216,19.92348 C131.135263,18.84468 132.523509,17.70828 134.59269,17.70828 C138.901287,17.70828 139.69731,20.54628 139.69731,24.23628 L139.69731,31.75188 Z M121.634532,16.17708 C120.266667,16.17708 119.164942,15.07068 119.164942,13.70628 C119.164942,12.34308 120.266667,11.23788 121.634532,11.23788 C122.994006,11.23788 124.099327,12.34308 124.099327,13.70628 C124.099327,15.07068 122.994006,16.17708 121.634532,16.17708 L121.634532,16.17708 Z M123.762456,31.75188 L119.503012,31.75188 L119.503012,18.04788 L123.762456,18.04788 L123.762456,31.75188 Z M129.431725,1.18068 C118.169912,1.18068 109.042018,10.31988 109.042018,21.59028 C109.042018,32.86428 118.169912,41.99988 129.431725,41.99988 C140.69114,41.99988 149.821433,32.86428 149.821433,21.59028 C149.821433,10.31988 140.69114,1.18068 129.431725,1.18068 L129.431725,1.18068 Z" id="Fill-6"></path>
                </g>
            </g>
        </g>
    </g>
</svg>