<?xml version="1.0" encoding="UTF-8" standalone="no"?>
<svg width="42px" height="41px" viewBox="0 0 42 41" version="1.1" xmlns="http://www.w3.org/2000/svg" xmlns:xlink="http://www.w3.org/1999/xlink" xmlns:sketch="http://www.bohemiancoding.com/sketch/ns">
    <!-- Generator: Sketch 3.4.4 (17249) - http://www.bohemiancoding.com/sketch -->
    <title>Fill 1</title>
    <desc>Created with Sketch.</desc>
    <defs></defs>
    <g id="Skisser-sidemaler" stroke="none" stroke-width="1" fill="none" fill-rule="evenodd" sketch:type="MSPage">
        <g id="Artikkel-" sketch:type="MSArtboardGroup" transform="translate(-1017.000000, -2488.000000)" fill="#1AA8E0">
            <g id="SOME-ikoner-1" sketch:type="MSLayerGroup" transform="translate(963.000000, 2487.000000)">
                <path d="M83.0504152,18.41472 C83.0576082,18.59232 83.0624035,18.77592 83.0624035,18.95832 C83.0624035,24.50112 78.8473158,30.89232 71.1388363,30.89232 C68.7735439,30.89232 66.5712924,30.19632 64.7155029,29.00832 C65.0427836,29.04792 65.3772573,29.06712 65.7153275,29.06712 C67.6790117,29.06712 69.486848,28.39632 70.9194503,27.26952 C69.0864386,27.23952 67.5387485,26.02512 67.0064678,24.35832 C67.2606199,24.40752 67.5243626,24.43392 67.7929006,24.43392 C68.1777251,24.43392 68.5457661,24.38472 68.8982222,24.28632 C66.9812924,23.90112 65.5367018,22.20672 65.5367018,20.17272 L65.5367018,20.12112 C66.1013509,20.43312 66.7475205,20.62272 67.4356491,20.64312 C66.3111462,19.89072 65.570269,18.60672 65.570269,17.15352 C65.570269,16.38552 65.7776667,15.66552 66.1385146,15.04152 C68.2064971,17.58312 71.2922865,19.25112 74.7760877,19.42512 C74.7029591,19.12032 74.6669942,18.79872 74.6669942,18.47112 C74.6669942,16.15512 76.5431637,14.27592 78.8569064,14.27592 C80.061731,14.27592 81.1514678,14.78712 81.9151228,15.59952 C82.8705906,15.41232 83.7673158,15.06552 84.5765263,14.58552 C84.2648304,15.56232 83.6006784,16.38552 82.733924,16.90272 C83.5814971,16.80192 84.3895088,16.57752 85.1399766,16.24392 C84.5801228,17.08392 83.8704152,17.82432 83.0504152,18.41472 M74.9115556,1.18152 C63.6497427,1.18152 54.5206491,10.31952 54.5206491,21.58992 C54.5206491,32.86392 63.6497427,41.99952 74.9115556,41.99952 C86.1721696,41.99952 95.3012632,32.86392 95.3012632,21.58992 C95.3012632,10.31952 86.1721696,1.18152 74.9115556,1.18152" id="Fill-1" sketch:type="MSShapeGroup"></path>
            </g>
        </g>
    </g>
</svg>