<?xml version="1.0" encoding="UTF-8" standalone="no"?>
<svg width="41px" height="41px" viewBox="0 0 41 41" version="1.1" xmlns="http://www.w3.org/2000/svg" xmlns:xlink="http://www.w3.org/1999/xlink" xmlns:sketch="http://www.bohemiancoding.com/sketch/ns">
    <!-- Generator: Sketch 3.4.4 (17249) - http://www.bohemiancoding.com/sketch -->
    <title>Fill 3</title>
    <desc>Created with Sketch.</desc>
    <defs></defs>
    <g id="Skisser-sidemaler" stroke="none" stroke-width="1" fill="none" fill-rule="evenodd" sketch:type="MSPage">
        <g id="Artikkel-" sketch:type="MSArtboardGroup" transform="translate(-963.000000, -2488.000000)" fill="#3B589F">
            <g id="SOME-ikoner-1" sketch:type="MSLayerGroup" transform="translate(963.000000, 2487.000000)">
                <g id="Group-5" sketch:type="MSShapeGroup">
                    <path d="M24.892155,18.13344 L24.6571842,21.18744 L21.5294357,21.18744 L21.5294357,31.79544 L17.5780906,31.79544 L17.5780906,21.18744 L15.4717456,21.18744 L15.4717456,18.13344 L17.5780906,18.13344 L17.5780906,16.08264 C17.5780906,15.18024 17.6020673,13.78584 18.2578275,12.92064 C18.9483538,12.00744 19.8978275,11.38584 21.5294357,11.38584 C24.1884415,11.38584 25.309348,11.76504 25.309348,11.76504 L24.7818626,14.88984 C24.7818626,14.88984 23.9031199,14.63664 23.0831199,14.63664 C22.2643187,14.63664 21.5294357,14.92944 21.5294357,15.75024 L21.5294357,18.13344 L24.892155,18.13344 Z M20.389348,1.18104 C9.12873392,1.18104 -0.000359649123,10.31904 -0.000359649123,21.59064 C-0.000359649123,32.86344 9.12873392,42.00024 20.389348,42.00024 C31.649962,42.00024 40.7802544,32.86344 40.7802544,21.59064 C40.7802544,10.31904 31.649962,1.18104 20.389348,1.18104 L20.389348,1.18104 Z" id="Fill-3"></path>
                </g>
            </g>
        </g>
    </g>
</svg>