<?xml version="1.0" encoding="UTF-8" standalone="no"?>
<svg width="34px" height="34px" viewBox="0 0 34 34" version="1.1" xmlns="http://www.w3.org/2000/svg" xmlns:xlink="http://www.w3.org/1999/xlink" xmlns:sketch="http://www.bohemiancoding.com/sketch/ns">
    <!-- Generator: Sketch 3.4.1 (15681) - http://www.bohemiancoding.com/sketch -->
    <title>Vimeo</title>
    <desc>Created with Sketch.</desc>
    <defs>
        <path id="path-1" d="M0,0.984 L34.016,0.984 L34.016,35 L0,35"></path>
    </defs>
    <g id="Skisser-sidemaler" stroke="none" stroke-width="1" fill="none" fill-rule="evenodd" sketch:type="MSPage">
        <g id="Oppsett-ikoner-etc." sketch:type="MSArtboardGroup" transform="translate(-716.000000, -476.000000)">
            <g id="Vimeo" sketch:type="MSLayerGroup" transform="translate(716.000000, 475.000000)">
                <mask id="mask-2" sketch:name="Clip 2" fill="white">
                    <use xlink:href="#path-1"></use>
                </mask>
                <g id="Clip-2"></g>
                <path d="M22.0361,21.2231 C19.7231,24.2251 17.7651,25.7231 16.1631,25.7231 C15.1731,25.7231 14.3351,24.8111 13.6491,22.9811 C13.1901,21.3031 12.7331,19.6231 12.2761,17.9501 C11.7661,16.1181 11.2201,15.2041 10.6361,15.2041 C10.5091,15.2041 10.0651,15.4721 9.3021,16.0051 L8.5031,14.9731 C9.3411,14.2391 10.1671,13.5001 10.9811,12.7661 C12.0971,11.7991 12.9361,11.2911 13.4971,11.2391 C14.8151,11.1121 15.6301,12.0141 15.9361,13.9441 C16.2651,16.0301 16.4951,17.3271 16.6221,17.8351 C17.0031,19.5611 17.4211,20.4241 17.8801,20.4241 C18.2331,20.4241 18.7681,19.8681 19.4791,18.7481 C20.1921,17.6321 20.5711,16.7801 20.6241,16.1941 C20.7251,15.2291 20.3451,14.7481 19.4791,14.7481 C19.0731,14.7481 18.6531,14.8341 18.2221,15.0141 C19.0611,12.2951 20.6631,10.9731 23.0261,11.0511 C24.7781,11.1001 25.6041,12.2311 25.5011,14.4401 C25.4271,16.0951 24.2681,18.3561 22.0361,21.2231 M17.0071,0.9841 C7.6141,0.9841 0.000100000001,8.5981 0.000100000001,17.9911 C0.000100000001,27.3861 7.6141,35.0001 17.0071,35.0001 C26.4001,35.0001 34.0151,27.3861 34.0151,17.9911 C34.0151,8.5981 26.4001,0.9841 17.0071,0.9841" id="Fill-1" fill="#CF3C3A" sketch:type="MSShapeGroup" mask="url(#mask-2)"></path>
            </g>
        </g>
    </g>
</svg>