<?xml version="1.0" encoding="UTF-8" standalone="no"?>
<svg width="32px" height="42px" viewBox="0 0 32 42" version="1.1" xmlns="http://www.w3.org/2000/svg" xmlns:xlink="http://www.w3.org/1999/xlink" xmlns:sketch="http://www.bohemiancoding.com/sketch/ns">
    <!-- Generator: Sketch 3.4.1 (15681) - http://www.bohemiancoding.com/sketch -->
    <title>IKON BESØK OSS</title>
    <desc>Created with Sketch.</desc>
    <defs></defs>
    <g id="Skisser-sidemaler" stroke="none" stroke-width="1" fill="none" fill-rule="evenodd" sketch:type="MSPage">
        <g id="Aktuelt-2" sketch:type="MSArtboardGroup" transform="translate(-629.000000, -3323.000000)" fill="#CF3C3A">
            <g id="MENY-BUNN-+-KONTANTINFO" sketch:type="MSLayerGroup" transform="translate(-4.000000, 3042.000000)">
                <g id="KONTAKTINFO" transform="translate(209.500000, 277.500000)" sketch:type="MSShapeGroup">
                    <g id="BESØK-OSS" transform="translate(424.000000, 0.000000)">
                        <path d="M15.6204315,45 L29.2351357,26.440958 C30.5089648,24.2601189 31.2385321,21.7410868 31.2385321,19.0591379 C31.2385321,10.7425119 24.24704,4 15.6192661,4 C6.99498842,4 0,10.7425119 0,19.0591379 C0,21.8085007 0.765696,24.3859582 2.10129359,26.6049985 L15.6204315,45 M15.6215969,26.7364556 C11.3700612,26.7364556 7.92617732,23.4163218 7.92617732,19.3209284 C7.92617732,15.2244115 11.3700612,11.9031542 15.6215969,11.9031542 C19.8673055,11.9031542 23.3123548,15.2244115 23.3123548,19.3209284 C23.3123548,23.4163218 19.8673055,26.7364556 15.6215969,26.7364556" id="IKON-BESØK-OSS"></path>
                    </g>
                </g>
            </g>
        </g>
    </g>
</svg>