<?xml version="1.0" encoding="UTF-8" standalone="no"?>
<svg width="34px" height="34px" viewBox="0 0 34 34" version="1.1" xmlns="http://www.w3.org/2000/svg" xmlns:xlink="http://www.w3.org/1999/xlink" xmlns:sketch="http://www.bohemiancoding.com/sketch/ns">
    <!-- Generator: Sketch 3.4.1 (15681) - http://www.bohemiancoding.com/sketch -->
    <title>You tube</title>
    <desc>Created with Sketch.</desc>
    <defs>
        <path id="path-1" d="M0,0.985 L34.016,0.985 L34.016,35 L0,35 L0,0.985 Z"></path>
    </defs>
    <g id="Skisser-sidemaler" stroke="none" stroke-width="1" fill="none" fill-rule="evenodd" sketch:type="MSPage">
        <g id="Oppsett-ikoner-etc." sketch:type="MSArtboardGroup" transform="translate(-771.000000, -476.000000)">
            <g id="You-tube" sketch:type="MSLayerGroup" transform="translate(771.000000, 475.000000)">
                <path d="M9.7793,20.1382 L10.9653,20.1382 L10.9653,26.0572 L12.1173,26.0572 L12.1173,20.1382 L13.3143,20.1382 L13.3143,19.1342 L9.7793,19.1342 L9.7793,20.1382 Z" id="Fill-1" fill="#CF3C3A" sketch:type="MSShapeGroup"></path>
                <g id="Group-13">
                    <path d="M15.6523,24.8242 C15.5613,24.9382 15.4603,25.0282 15.3373,25.0972 C15.2223,25.1762 15.1313,25.2092 15.0543,25.2092 C14.9623,25.2092 14.8843,25.1872 14.8493,25.1302 C14.8043,25.0742 14.7813,24.9832 14.7813,24.8702 L14.7813,20.9402 L13.7653,20.9402 L13.7653,25.2202 C13.7653,25.5262 13.8223,25.7502 13.9353,25.8972 C14.0583,26.0572 14.2403,26.1352 14.4763,26.1352 C14.6683,26.1352 14.8613,26.0802 15.0643,25.9672 C15.2683,25.8642 15.4703,25.7052 15.6523,25.4912 L15.6523,26.0572 L16.6793,26.0572 L16.6793,20.9402 L15.6523,20.9402 L15.6523,24.8242 Z" id="Fill-2" fill="#CF3C3A" sketch:type="MSShapeGroup"></path>
                    <g id="Group-6">
                        <mask id="mask-2" sketch:name="Clip 5" fill="white">
                            <use xlink:href="#path-1"></use>
                        </mask>
                        <g id="Clip-5"></g>
                        <path d="M28.2109,24.3633 C28.2109,26.1233 26.7659,27.5593 25.0159,27.5593 L8.9999,27.5593 C7.2489,27.5593 5.8049,26.1233 5.8049,24.3633 L5.8049,21.0983 C5.8049,19.3373 7.2489,17.8913 8.9999,17.8913 L25.0159,17.8913 C26.7659,17.8913 28.2109,19.3373 28.2109,21.0983 L28.2109,24.3633 Z M12.0609,8.4263 L12.8969,11.4763 L12.9869,11.4763 L13.7889,8.4263 L15.0989,8.4263 L13.5959,12.8873 L13.5959,16.0503 L12.2989,16.0503 L12.2989,13.0343 L10.7509,8.4263 L12.0609,8.4263 Z M15.1899,11.7133 C15.1899,11.2723 15.3459,10.9343 15.6519,10.6743 C15.9689,10.4153 16.3849,10.2793 16.9059,10.2793 C17.3799,10.2793 17.7739,10.4153 18.0789,10.6963 C18.3739,10.9673 18.5309,11.3183 18.5309,11.7473 L18.5309,14.6493 C18.5309,15.1353 18.3849,15.5083 18.0789,15.7783 C17.7869,16.0613 17.3679,16.1963 16.8489,16.1963 C16.3519,16.1963 15.9449,16.0503 15.6409,15.7683 C15.3459,15.4853 15.1899,15.1133 15.1899,14.6273 L15.1899,11.7133 Z M19.4569,10.4253 L20.6099,10.4253 L20.6099,14.7403 C20.6099,14.8753 20.6309,14.9653 20.6899,15.0333 C20.7339,15.0903 20.8149,15.1243 20.9149,15.1243 C21.0049,15.1243 21.1069,15.0793 21.2419,14.9993 C21.3679,14.9203 21.4889,14.8193 21.5919,14.6953 L21.5919,10.4253 L22.7459,10.4253 L22.7459,16.0503 L21.5919,16.0503 L21.5919,15.4293 C21.3769,15.6663 21.1619,15.8353 20.9379,15.9603 C20.6999,16.0723 20.4869,16.1293 20.2589,16.1293 C19.9989,16.1293 19.7959,16.0503 19.6609,15.8803 C19.5239,15.7113 19.4569,15.4643 19.4569,15.1243 L19.4569,10.4253 Z M17.0089,0.9853 C7.6149,0.9853 -0.000100000001,8.6003 -0.000100000001,17.9923 C-0.000100000001,27.3853 7.6149,35.0003 17.0089,35.0003 C26.4009,35.0003 34.0159,27.3853 34.0159,17.9923 C34.0159,8.6003 26.4009,0.9853 17.0089,0.9853 L17.0089,0.9853 Z" id="Fill-4" fill="#CF3C3A" sketch:type="MSShapeGroup" mask="url(#mask-2)"></path>
                    </g>
                    <path d="M22.8672,22.8247 L21.9752,22.8247 L21.9752,22.3057 C21.9752,22.1037 21.9982,21.9447 22.0782,21.8547 C22.1472,21.7647 22.2602,21.7087 22.4302,21.7087 C22.5872,21.7087 22.6992,21.7647 22.7682,21.8547 C22.8342,21.9447 22.8672,22.1037 22.8672,22.3057 L22.8672,22.8247 Z M22.4722,20.8157 C22.0092,20.8157 21.6372,20.9617 21.3562,21.2347 C21.0612,21.5147 20.9152,21.8787 20.9152,22.3177 L20.9152,24.6117 C20.9152,25.1077 21.0502,25.4917 21.3092,25.7737 C21.5702,26.0567 21.9292,26.1927 22.3942,26.1927 C22.9012,26.1927 23.2862,26.0677 23.5352,25.7967 C23.7952,25.5367 23.9312,25.1417 23.9312,24.6117 L23.9312,24.3507 L22.8672,24.3507 L22.8672,24.5877 C22.8672,24.8817 22.8342,25.0847 22.7682,25.1637 C22.6992,25.2547 22.5872,25.3007 22.4172,25.3007 C22.2602,25.3007 22.1332,25.2547 22.0672,25.1417 C21.9982,25.0407 21.9752,24.8597 21.9752,24.5877 L21.9752,23.6287 L23.9312,23.6287 L23.9312,22.3177 C23.9312,21.8317 23.7952,21.4717 23.5462,21.2117 C23.2992,20.9517 22.9362,20.8157 22.4722,20.8157 L22.4722,20.8157 Z" id="Fill-7" fill="#CF3C3A" sketch:type="MSShapeGroup"></path>
                    <path d="M19.334,24.8594 C19.334,25.0274 19.299,25.1424 19.242,25.2094 C19.186,25.2894 19.098,25.3234 18.961,25.3234 C18.881,25.3234 18.805,25.3004 18.725,25.2654 C18.645,25.2324 18.554,25.1644 18.477,25.0844 L18.477,21.9014 C18.543,21.8314 18.622,21.7754 18.689,21.7414 C18.758,21.7084 18.838,21.6964 18.904,21.6964 C19.039,21.6964 19.154,21.7414 19.222,21.8314 C19.299,21.9224 19.334,22.0464 19.334,22.2174 L19.334,24.8594 Z M19.39,20.8844 C19.232,20.8844 19.072,20.9284 18.914,21.0084 C18.758,21.0884 18.612,21.2124 18.477,21.3584 L18.477,19.1334 L17.447,19.1334 L17.447,26.0574 L18.477,26.0574 L18.477,25.6614 C18.612,25.8204 18.758,25.9314 18.914,26.0124 C19.072,26.0904 19.242,26.1234 19.447,26.1234 C19.751,26.1234 19.99,26.0224 20.147,25.8304 C20.304,25.6374 20.383,25.3574 20.383,24.9944 L20.383,22.1614 C20.383,21.7414 20.295,21.4254 20.125,21.2124 C19.954,20.9964 19.708,20.8844 19.39,20.8844 L19.39,20.8844 Z" id="Fill-9" fill="#CF3C3A" sketch:type="MSShapeGroup"></path>
                    <path d="M16.8486,15.2251 C17.0076,15.2251 17.1306,15.1811 17.2206,15.0901 C17.3106,14.9991 17.3576,14.8871 17.3576,14.7401 L17.3576,11.6681 C17.3576,11.5441 17.3106,11.4421 17.2206,11.3751 C17.1206,11.2951 16.9946,11.2621 16.8486,11.2621 C16.7126,11.2621 16.5896,11.2951 16.5096,11.3751 C16.4206,11.4421 16.3746,11.5441 16.3746,11.6681 L16.3746,14.7401 C16.3746,14.8871 16.4206,15.0111 16.4976,15.0901 C16.5776,15.1811 16.7016,15.2251 16.8486,15.2251" id="Fill-11" fill="#CF3C3A" sketch:type="MSShapeGroup"></path>
                </g>
            </g>
        </g>
    </g>
</svg>